# xmcd CD database file
#
# Track frame offsets:
#	150
#	13218
#	35906
#	58999
#	70820
#	84852
#	98150
#	132170
#	154390
#	169978
#	188671
#	202785
#	225454
#	239908
#	259105
#	279652
#	297259
#
# Disc length: 4252 seconds
#
# Revision: 6
# Processed by: cddbd v1.5.2PL0 Copyright (c) Steve Scherf et al.
# Submitted via: CDex 2.00
#
DISCID=fa109a11
DTITLE=Ry Cooder - My Name Is Buddy
DYEAR=2007
DGENRE=Rock
TTITLE0=Suitcase in My Hand
TTITLE1=Cat and Mouse
TTITLE2=Strike!
TTITLE3=J. Edgar
TTITLE4=Footprints in the Snow
TTITLE5=Sundown Town
TTITLE6=Green Dog
TTITLE7=The Dying Truck Driver
TTITLE8=Christmas in Southgate
TTITLE9=Hank Williams
TTITLE10=Red Cat Till I Die
TTITLE11=Three Chords and the Truth
TTITLE12=My Name is Buddy
TTITLE13=One Cat, One Vote, One Beer
TTITLE14=Cardboard Avenue
TTITLE15=Farm Girl
TTITLE16=There's a Bright Side Somewhere
EXTD=YEAR: 2007
EXTT0=
EXTT1=
EXTT2=
EXTT3=
EXTT4=
EXTT5=
EXTT6=
EXTT7=
EXTT8=
EXTT9=
EXTT10=
EXTT11=
EXTT12=
EXTT13=
EXTT14=
EXTT15=
EXTT16=
PLAYORDER=
